<svg width="26" height="24" viewBox="0 0 26 24" fill="none" xmlns="http://www.w3.org/2000/svg">
<g clip-path="url(#clip0_70_1834)">
<path d="M0.75 21.8828C0.75 22.4453 1.125 22.8086 1.6875 22.8086H24.9961C25.5117 22.8086 25.9453 22.3984 25.9453 21.8711C25.9453 21.3555 25.5117 20.9336 24.9961 20.9336H2.96484C2.71875 20.9336 2.63672 20.8516 2.63672 20.6055V2.07812C2.63672 1.57422 2.21484 1.14062 1.69922 1.14062C1.17188 1.14062 0.75 1.57422 0.75 2.07812V21.8828ZM1.98047 14.5938L9.51562 10.2344L14.9414 14.8867L24.5859 9.14453L23.8477 7.94922L15.0352 13.1992L9.63281 8.57031L1.98047 12.9883V14.5938ZM9.36328 11.8164C10.5117 11.8164 11.4492 10.8789 11.4492 9.73047C11.4492 8.58203 10.5117 7.65625 9.36328 7.65625C8.21484 7.65625 7.27734 8.58203 7.27734 9.73047C7.27734 10.8789 8.21484 11.8164 9.36328 11.8164ZM14.8945 16.1172C16.043 16.1172 16.9688 15.1797 16.9688 14.0312C16.9688 12.8828 16.043 11.957 14.8945 11.957C13.7461 11.957 12.8086 12.8828 12.8086 14.0312C12.8086 15.1797 13.7461 16.1172 14.8945 16.1172ZM23.7305 10.7852C24.8789 10.7852 25.8164 9.84766 25.8164 8.69922C25.8164 7.55078 24.8789 6.61328 23.7305 6.61328C22.582 6.61328 21.6445 7.55078 21.6445 8.69922C21.6445 9.84766 22.582 10.7852 23.7305 10.7852Z" fill="#B4E6DC"/>
</g>
<defs>
<clipPath id="clip0_70_1834">
<rect width="25.1953" height="21.8086" fill="white" transform="translate(0.75 1)"/>
</clipPath>
</defs>
</svg>
