<svg width="26" height="26" viewBox="0 0 26 26" fill="none" xmlns="http://www.w3.org/2000/svg">
<g clip-path="url(#clip0_70_1970)">
<path d="M12.1055 25.0547H14.4727C15.375 25.0547 16.0664 24.5039 16.2773 23.6367L16.7812 21.4453L17.1562 21.3164L19.0664 22.4883C19.8281 22.9688 20.707 22.8516 21.3516 22.207L22.9922 20.5781C23.6367 19.9336 23.7539 19.043 23.2734 18.293L22.0781 16.3945L22.2188 16.043L24.4102 15.5273C25.2656 15.3164 25.8281 14.6133 25.8281 13.7227V11.4023C25.8281 10.5117 25.2773 9.80859 24.4102 9.59766L22.2422 9.07031L22.0898 8.69531L23.2852 6.79688C23.7656 6.04688 23.6484 5.16797 23.0039 4.51172L21.3633 2.87109C20.7305 2.23828 19.8516 2.12109 19.0898 2.58984L17.1797 3.76172L16.7812 3.60938L16.2773 1.41797C16.0664 0.550781 15.375 0 14.4727 0H12.1055C11.2031 0 10.5117 0.550781 10.3008 1.41797L9.78516 3.60938L9.38672 3.76172L7.48828 2.58984C6.72656 2.12109 5.83594 2.23828 5.20312 2.87109L3.57422 4.51172C2.92969 5.16797 2.80078 6.04688 3.29297 6.79688L4.47656 8.69531L4.33594 9.07031L2.16797 9.59766C1.30078 9.80859 0.75 10.5117 0.75 11.4023V13.7227C0.75 14.6133 1.3125 15.3164 2.16797 15.5273L4.35938 16.043L4.48828 16.3945L3.30469 18.293C2.8125 19.043 2.94141 19.9336 3.58594 20.5781L5.21484 22.207C5.85938 22.8516 6.75 22.9688 7.51172 22.4883L9.41016 21.3164L9.78516 21.4453L10.3008 23.6367C10.5117 24.5039 11.2031 25.0547 12.1055 25.0547ZM12.293 23.2266C12.0938 23.2266 11.9883 23.1445 11.9531 22.957L11.25 20.0508C10.5352 19.875 9.86719 19.5938 9.36328 19.2773L6.80859 20.8477C6.66797 20.9531 6.51562 20.9297 6.375 20.7891L4.99219 19.4062C4.86328 19.2773 4.85156 19.1367 4.94531 18.9727L6.51562 16.4414C6.24609 15.9492 5.94141 15.2812 5.75391 14.5664L2.84766 13.875C2.66016 13.8398 2.57812 13.7344 2.57812 13.5352V11.5781C2.57812 11.3672 2.64844 11.2734 2.84766 11.2383L5.74219 10.5352C5.92969 9.77344 6.28125 9.08203 6.49219 8.64844L4.93359 6.11719C4.82812 5.94141 4.83984 5.80078 4.96875 5.66016L6.36328 4.30078C6.50391 4.16016 6.63281 4.13672 6.80859 4.24219L9.33984 5.77734C9.84375 5.49609 10.5586 5.20312 11.2617 5.00391L11.9531 2.09766C11.9883 1.91016 12.0938 1.82812 12.293 1.82812H14.2852C14.4844 1.82812 14.5898 1.91016 14.6133 2.09766L15.3281 5.02734C16.0547 5.21484 16.6875 5.50781 17.2148 5.78906L19.7578 4.24219C19.9453 4.13672 20.0625 4.16016 20.2148 4.30078L21.5977 5.66016C21.7383 5.80078 21.7383 5.94141 21.6328 6.11719L20.0742 8.64844C20.2969 9.08203 20.6367 9.77344 20.8242 10.5352L23.7305 11.2383C23.918 11.2734 24 11.3672 24 11.5781V13.5352C24 13.7344 23.9062 13.8398 23.7305 13.875L20.8125 14.5664C20.625 15.2812 20.332 15.9492 20.0508 16.4414L21.6211 18.9727C21.7148 19.1367 21.7148 19.2773 21.5742 19.4062L20.2031 20.7891C20.0508 20.9297 19.9102 20.9531 19.7578 20.8477L17.2031 19.2773C16.6992 19.5938 16.043 19.875 15.3281 20.0508L14.6133 22.957C14.5898 23.1445 14.4844 23.2266 14.2852 23.2266H12.293ZM13.2891 17.0039C15.7383 17.0039 17.7539 14.9883 17.7539 12.5273C17.7539 10.0898 15.7383 8.07422 13.2891 8.07422C10.8398 8.07422 8.8125 10.0898 8.8125 12.5273C8.8125 14.9766 10.8281 17.0039 13.2891 17.0039ZM13.2891 15.1875C11.8359 15.1875 10.6406 13.9922 10.6406 12.5273C10.6406 11.0859 11.8359 9.89062 13.2891 9.89062C14.7188 9.89062 15.9141 11.0859 15.9141 12.5273C15.9141 13.9805 14.7188 15.1875 13.2891 15.1875Z" fill="#B4E6DC"/>
</g>
<defs>
<clipPath id="clip0_70_1970">
<rect width="25.0781" height="25.0664" fill="white" transform="translate(0.75)"/>
</clipPath>
</defs>
</svg>
