<svg width="28" height="24" viewBox="0 0 28 24" fill="none" xmlns="http://www.w3.org/2000/svg">
<g clip-path="url(#clip0_70_470)">
<path d="M5.51172 17.9258H8.38281C9.07422 17.9258 9.53125 17.457 9.53125 16.8008V14.6328C9.53125 13.9648 9.07422 13.5078 8.38281 13.5078H5.51172C4.82031 13.5078 4.36328 13.9648 4.36328 14.6328V16.8008C4.36328 17.457 4.82031 17.9258 5.51172 17.9258ZM1.19922 9.33594H26.8516V6.67578H1.19922V9.33594ZM3.92969 22.0273H24.1094C26.5703 22.0273 27.7891 20.8203 27.7891 18.4062V5.64453C27.7891 3.23047 26.5703 2.01172 24.1094 2.01172H3.92969C1.48047 2.01172 0.25 3.23047 0.25 5.64453V18.4062C0.25 20.8203 1.48047 22.0273 3.92969 22.0273ZM3.95312 20.1406C2.78125 20.1406 2.13672 19.5195 2.13672 18.3008V5.75C2.13672 4.53125 2.78125 3.89844 3.95312 3.89844H24.0859C25.2344 3.89844 25.9023 4.53125 25.9023 5.75V18.3008C25.9023 19.5195 25.2344 20.1406 24.0859 20.1406H3.95312Z" fill="#B4E6DC"/>
</g>
<defs>
<clipPath id="clip0_70_470">
<rect width="27.5391" height="20.0273" fill="white" transform="translate(0.25 2)"/>
</clipPath>
</defs>
</svg>
