<svg width="33" height="24" viewBox="0 0 33 24" fill="none" xmlns="http://www.w3.org/2000/svg">
<g clip-path="url(#clip0_70_1500)">
<path d="M15.2852 23.0898H30.0039C31.9609 23.0898 32.8867 22.5039 32.8867 21.2148C32.8867 18.1445 29.0078 13.7031 22.6445 13.7031C16.293 13.7031 12.4141 18.1445 12.4141 21.2148C12.4141 22.5039 13.3398 23.0898 15.2852 23.0898ZM14.7227 21.3203C14.418 21.3203 14.3008 21.2383 14.3008 20.9922C14.3008 19.0703 17.2773 15.4727 22.6445 15.4727C28.0234 15.4727 31 19.0703 31 20.9922C31 21.2383 30.8711 21.3203 30.5664 21.3203H14.7227ZM22.6562 12.25C25.4453 12.25 27.7188 9.76562 27.7188 6.74219C27.7188 3.74219 25.457 1.38672 22.6562 1.38672C19.8672 1.38672 17.582 3.78906 17.5938 6.76562C17.6055 9.77734 19.8672 12.25 22.6562 12.25ZM22.6562 10.4805C20.9453 10.4805 19.4805 8.83984 19.4805 6.76562C19.4688 4.72656 20.9102 3.15625 22.6562 3.15625C24.4023 3.15625 25.832 4.70312 25.832 6.74219C25.832 8.81641 24.3789 10.4805 22.6562 10.4805ZM2.62891 23.0898H11.8281C11.2656 22.7734 10.8438 22.0703 10.9258 21.3555H2.34766C2.10156 21.3555 1.99609 21.2617 1.99609 21.0391C1.99609 18.1328 5.3125 15.4141 9.14453 15.4141C10.6094 15.4141 11.9453 15.7656 13.082 16.4336C13.4453 15.9648 13.8789 15.5547 14.4062 15.1914C12.8945 14.1953 11.0781 13.6797 9.14453 13.6797C4.23438 13.6797 0.25 17.2422 0.25 21.1445C0.25 22.4453 1.04688 23.0898 2.62891 23.0898ZM9.15625 12.3438C11.5703 12.3438 13.5508 10.1758 13.5508 7.51562C13.5508 4.91406 11.5938 2.81641 9.15625 2.81641C6.74219 2.81641 4.75 4.94922 4.76172 7.53906C4.76172 10.1875 6.74219 12.3438 9.15625 12.3438ZM9.15625 10.5977C7.71484 10.5977 6.50781 9.22656 6.50781 7.53906C6.50781 5.88672 7.70312 4.5625 9.15625 4.5625C10.6328 4.5625 11.8164 5.86328 11.8164 7.51562C11.8164 9.22656 10.5977 10.5977 9.15625 10.5977Z" fill="#B4E6DC"/>
</g>
<defs>
<clipPath id="clip0_70_1500">
<rect width="32.6367" height="22.0898" fill="white" transform="translate(0.25 1)"/>
</clipPath>
</defs>
</svg>
